<svg width="303" height="150" viewBox="0 0 303 150" fill="none" xmlns="http://www.w3.org/2000/svg">
<path d="M292.648 0C303.658 0.160719 303.901 11.8062 301.173 19.6562C293.155 42.7248 275.413 62.0462 256.662 77.001C256.622 77.1863 256.587 77.3734 256.556 77.5605C253.984 92.3542 265.304 93.6261 275.944 88.9824C279.613 87.3814 282.699 85.1272 286.094 83.085C288.251 81.7867 289.064 83.8189 289.503 85.5537C292.443 98.572 284.359 111.086 273.615 117.768C261.197 125.49 247.772 125.959 233.759 127.207C224.155 128.063 214.557 128.978 204.964 129.95C176.103 132.817 147.36 136.772 118.797 141.806C110.449 143.297 102.138 144.991 93.8721 146.888C89.8356 147.81 85.83 148.881 81.8047 149.814C77.984 150.7 76.8987 147.868 75.1827 145.25C69.7728 136.993 72.9616 136.415 80.5381 134.741C120.85 125.841 162.129 121.559 203.19 117.758L232.943 115.252C244.751 114.305 257.817 113.958 268.441 108.243C273.783 105.37 279.249 100.426 280.728 94.3252C270.647 100.121 251.189 109.059 242.449 95.9805C241.489 94.5426 240.961 92.5114 240.503 90.8438C234.093 96.8911 225.63 103.036 217.007 105.161C207.352 107.54 199.49 105.428 196.911 94.8701C191.762 99.8316 186.17 104.017 179.673 107.171C173.948 109.95 163.538 111.556 160.529 104.199C157.584 97.0035 163.028 87.0877 165.837 80.3018C161.158 81.9902 158.454 82.4903 153.557 82.1387C148.289 97.2685 131.306 119.861 112.785 116.4C107.244 115.091 104.876 111.327 104.437 105.908C98.6125 113.607 85.4725 124.891 74.918 120.664C72.8389 119.837 71.1921 118.19 70.3653 116.111C68.2738 110.995 70.6323 104.505 72.7081 99.752C75.4655 93.4375 78.3244 86.9919 81.2237 80.749C82.1718 78.7073 84.6203 72.9615 85.6485 71.2705C85.9243 70.8154 86.3464 70.4678 86.8458 70.2842C87.2593 70.1358 89.5724 69.8289 89.9942 69.8164C92.3377 69.7467 98.9729 68.2167 100.868 69.0244C101.104 69.5537 101.076 69.9218 100.918 70.4746C100.48 72.0047 99.5276 73.467 98.876 74.9248C96.5175 80.2025 85.8575 101.366 86.2627 105.962C86.3289 106.713 86.5689 107.436 87.1846 107.918C87.8358 108.427 88.7526 108.507 89.5499 108.422C96.5747 107.675 104.514 94.7604 107.529 89.0059C109.855 84.5677 111.767 79.8199 113.812 75.2383C114.72 73.2031 116.351 68.5661 117.71 67.0322C118.107 66.5841 118.735 66.4079 119.299 66.2764C121.705 65.7158 124.369 65.6765 126.831 65.3926C128.312 65.2219 129.821 64.8365 131.312 64.8291C131.958 64.8258 132.454 64.8754 132.938 65.3438C133.074 65.8026 133.003 66.2277 132.811 66.6621C129.035 75.1888 124.966 83.614 121.437 92.249C120.289 95.0574 118.902 99.2028 120.099 102.141C121.194 104.829 124.687 104.475 126.877 103.484C135.664 98.8731 141.656 87.2828 144.891 78.4365C142.178 75.5794 141.35 71.7465 141.787 68.0596C142.428 62.6552 145.157 61.6837 150.029 61.5566C151.051 61.53 153.022 60.9619 154.006 61.1953C158.477 62.2551 156.879 70.3183 156.328 73.4609C161.044 75.7075 166.372 72.8688 170.345 70.374C171.742 67.6452 172.726 64.5502 174.18 61.8301C174.778 60.4318 176.306 59.8192 177.834 59.875C179.984 59.9531 188.134 58.1256 189.739 59.0527C189.908 59.4626 189.959 59.6286 189.847 60.084C189.347 62.0909 188.014 64.3236 187.148 66.2354C184.713 71.6175 176.342 88.7035 175.943 93.5186C175.858 94.5333 175.982 95.6755 176.71 96.4561C177.246 97.0313 178.02 97.2668 178.785 97.3115C184.775 97.6614 192.647 90.1386 196.79 86.3594C200.178 60.9014 216.691 26.5166 236.247 9.12695C240.466 5.55785 245.94 2.06626 251.692 2.53809C254.121 2.73757 256.697 4.06324 258.047 6.04004C262.708 12.8718 258.272 24.1969 255.129 30.5596C245.351 50.3624 230.243 66.4757 213.229 80.2451C211.329 88.7036 214.268 97.0906 224.566 93.209C230.785 90.8652 235.595 86.5162 240.45 82.1348C243.696 58.9142 256.037 32.5462 271.064 14.4453C276.334 8.09611 283.979 0.66835 292.648 0ZM248.363 13.5166C237.493 18.8911 221.099 53.2902 217.098 65.1191C216.848 65.8526 216.617 66.5923 216.405 67.3379L217.812 65.9854C227.713 55.5837 236.6 44.7678 243.63 32.1816C245.223 29.3322 251.994 16.8926 249.94 13.9287C249.4 13.485 249.086 13.4856 248.363 13.5166ZM292.595 15.1562C293.09 13.5297 293.34 10.7273 290.75 11.168C280.008 17.1269 263.404 51.4474 259.868 63.7109C259.821 63.8722 259.776 64.0341 259.732 64.1963L261.183 62.8477C273.375 50.3953 287.366 32.3146 292.595 15.1562Z" fill="#EA5B2E"/>
<path d="M182.722 2.83624C183.659 2.75869 183.817 2.78569 184.253 3.54726C184.485 5.79752 180.848 11.4827 179.387 13.4139C173.673 20.9768 164.502 22.2673 155.601 23.7714C149.566 24.7594 143.516 25.6647 137.454 26.4869C122.085 28.5998 106.699 30.5968 91.299 32.478C89.2593 34.8661 82.6024 48.6341 80.9551 51.9735C71.2245 71.8069 61.7548 91.7672 52.5489 111.849C50.0918 117.112 47.6641 122.389 45.2661 127.678C44.0088 130.441 42.769 133.213 41.4901 135.966C40.3969 138.319 39.1913 138.577 36.848 139.147C31.6285 140.419 26.4151 141.675 21.2224 143.049C19.3214 143.55 19.0287 142.114 19.6835 140.682C20.8634 138.232 21.9785 135.779 23.1211 133.32L30.965 116.598C39.8777 97.7486 49.0227 79.0105 58.3981 60.3875C63.1796 51.0119 67.1824 43.9047 72.7523 35.0062C69.102 35.3872 65.2441 35.914 61.5527 36.5085C49.2219 38.4944 35.0784 39.8175 24.4394 46.7915C15.4901 52.6579 16.2321 64.177 27.6332 65.7097C29.0148 65.8954 32.1318 65.896 32.9717 67.0243C33.0784 68.9942 29.0842 70.5293 27.5185 70.9812C21.3741 72.7546 14.857 72.4951 9.1592 69.4224C5.13512 67.2627 2.14991 63.5747 0.876152 59.1896C-3.5318 44.2937 9.47655 32.3754 22.3805 28.3241C30.9764 25.6255 38.4622 24.3055 47.3332 23.0422C55.1415 21.9625 62.9601 20.9569 70.7877 20.0255L127.691 12.9439C146.031 10.5155 164.969 7.99324 182.722 2.83624Z" fill="#EA5B2E"/>
<path d="M188.195 37.0521C192.67 36.9988 196.353 40.5617 196.447 45.0357C196.542 49.5098 193.011 53.2234 188.536 53.3575C184.005 53.4932 180.232 49.9084 180.137 45.3769C180.043 40.8454 183.663 37.1061 188.195 37.0521Z" fill="#EA5B2E"/>
</svg>
